<svg version="1.1" id="Layer_1" xmlns="http://www.w3.org/2000/svg" xmlns:xlink="http://www.w3.org/1999/xlink" x="0px" y="0px"
	 width="100%" viewBox="0 0 512 512" enable-background="new 0 0 512 512" xml:space="preserve">
<path fill="#000000" opacity="1.000000" stroke="none" 
	d="
M297.000000,513.000000 
	C198.024033,513.000000 99.548058,513.000000 1.036045,513.000000 
	C1.036045,342.399017 1.036045,171.798004 1.036045,1.098500 
	C171.559311,1.098500 342.118713,1.098500 512.839050,1.098500 
	C512.839050,171.666550 512.839050,342.333252 512.839050,513.000000 
	C441.131317,513.000000 369.315643,513.000000 297.000000,513.000000 
M473.250366,154.990662 
	C469.797882,157.644379 466.345428,160.298080 462.201294,163.006226 
	C459.117706,165.969421 456.034119,168.932632 452.342529,172.181244 
	C449.543457,175.086548 446.744354,177.991852 443.347443,181.179276 
	C441.547394,183.081665 439.747345,184.984039 437.346252,187.184402 
	C435.862091,189.105637 434.377930,191.026871 432.302063,193.233978 
	C430.183838,195.452454 428.065613,197.670944 425.338409,200.198990 
	C422.522156,203.451492 419.705933,206.703995 416.297546,210.252365 
	C414.232880,212.461197 412.168213,214.670044 409.806213,216.290054 
	C408.239716,214.510468 406.673248,212.730881 404.832947,210.326340 
	C401.925201,207.200729 399.017456,204.075134 395.862213,200.358459 
	C394.613861,199.222183 393.365540,198.085892 391.839172,196.334732 
	C386.930450,191.866730 382.021729,187.398727 377.025879,182.313202 
	C376.690155,181.865799 376.354462,181.418411 376.002380,181.004013 
	C376.002380,181.004013 376.034119,180.984238 375.994812,180.246796 
	C372.992920,174.657440 370.300995,168.873169 366.931732,163.514832 
	C356.286926,146.585968 342.960297,132.041885 326.712799,119.306854 
	C325.160431,118.095474 323.646576,116.830566 322.049866,115.680779 
	C300.181396,99.933395 276.418518,87.866028 251.019531,78.911041 
	C232.593353,72.414467 213.725952,67.657104 194.376297,65.219452 
	C188.757828,64.511627 182.457047,63.209381 177.146591,67.342430 
	C165.397339,76.486687 153.936890,85.931511 144.381439,98.345894 
	C139.879395,105.552902 135.377365,112.759918 130.285446,120.335358 
	C127.935318,126.255699 125.585197,132.176041 122.825012,138.694565 
	C98.651619,150.090561 79.114136,166.923615 63.327328,189.228409 
	C59.849747,196.135635 56.372166,203.042862 52.254299,210.324600 
	C51.151836,213.843658 50.049377,217.362732 48.261734,221.278336 
	C47.562824,224.853317 46.863914,228.428299 45.817268,232.704468 
	C45.268406,235.140854 44.719540,237.577240 44.026024,240.878204 
	C43.739468,243.920609 43.452908,246.963013 43.023804,250.866928 
	C43.054794,252.898285 43.085785,254.929642 43.180439,257.637268 
	C47.415703,261.451080 51.650967,265.264862 56.174015,269.684906 
	C58.262100,271.787079 60.432186,273.814728 62.423103,276.005188 
	C68.742027,282.957428 68.716202,282.980896 62.284431,290.078644 
	C58.189911,293.043701 54.095390,296.008789 49.340813,299.356110 
	C51.616199,304.901947 53.891586,310.447784 56.207546,316.699707 
	C63.174950,328.790649 71.888512,339.362030 82.190804,348.866028 
	C98.981819,364.355988 118.409149,375.176056 139.639175,382.963409 
	C166.173386,392.696442 193.692505,396.612396 222.159683,396.642670 
	C229.804291,403.282776 236.875458,410.790222 245.249771,416.326599 
	C254.180450,422.230713 264.342804,426.271790 274.328735,431.761414 
	C281.206268,433.547028 288.083832,435.332611 295.429962,437.799774 
	C301.283142,438.144379 307.136353,438.488953 313.777222,438.975708 
	C319.751251,439.014252 323.113220,435.084076 319.969574,427.250122 
	C314.576111,416.257721 309.125214,405.292938 303.815247,394.260376 
	C301.420288,389.284363 299.306122,384.173218 297.850555,379.014130 
	C307.278137,374.697998 316.705719,370.381866 326.759216,366.284760 
	C334.503510,370.799255 342.247772,375.313751 350.746674,379.994598 
	C356.494171,381.604919 362.241638,383.215271 368.857056,384.971100 
	C372.253571,385.018677 375.650055,385.066254 379.868652,385.028137 
	C383.609772,385.417786 385.787018,384.259033 384.975128,379.232727 
	C381.784302,371.778412 378.580139,364.329803 375.406952,356.868011 
	C372.866669,350.894501 370.364014,344.905060 368.191467,338.315918 
	C374.809845,332.580688 381.428192,326.845490 388.667419,320.844666 
	C393.149567,315.910614 397.631714,310.976593 402.733612,305.785797 
	C405.201508,302.879211 407.669403,299.972656 410.747375,297.318024 
	C413.815857,300.583038 416.884369,303.848053 420.255280,307.701294 
	C422.467712,310.150269 424.680145,312.599243 427.201538,315.644165 
	C429.788666,318.446930 432.375824,321.249695 435.222687,324.629578 
	C436.444946,325.770233 437.667175,326.910889 439.185486,328.643097 
	C441.087036,330.443054 442.988617,332.242981 445.193207,334.643372 
	C448.446899,337.798798 451.700623,340.954193 455.243347,344.707214 
	C459.479645,348.171173 463.715973,351.635132 468.260590,355.713989 
	C473.752014,358.430298 479.054962,361.677643 484.788208,363.712677 
	C490.450745,365.722534 492.869843,363.641968 491.878235,357.753265 
	C490.700104,350.757141 488.555481,343.923767 486.976746,336.230438 
	C484.666199,328.451904 482.355621,320.673370 480.014160,312.079407 
	C478.620361,306.390930 477.226562,300.702423 475.930664,294.213715 
	C474.899872,289.145020 473.869080,284.076294 472.965271,278.173737 
	C472.310608,271.868256 471.234650,265.570831 471.113708,259.255127 
	C470.979065,252.225876 471.713867,245.179947 472.740936,237.663101 
	C473.772125,231.770050 474.803345,225.876984 475.960449,219.183670 
	C477.345825,213.135483 478.731201,207.087296 480.735870,200.611237 
	C482.102386,195.070618 483.468872,189.529999 485.186249,183.306061 
	C486.402771,178.867294 487.619263,174.428513 489.206787,169.277023 
	C490.140320,165.040970 491.374908,160.844131 491.932861,156.559189 
	C492.667175,150.919815 490.220551,148.641876 484.930176,150.164124 
	C481.134705,151.256226 477.605286,153.272949 473.250366,154.990662 
z"/>
<path fill="#137EF0" opacity="1.000000" stroke="none" 
	d="
M63.954178,188.890717 
	C79.114136,166.923615 98.651619,150.090561 123.396378,138.377808 
	C127.664238,136.431320 131.360733,134.801575 135.418930,133.079895 
	C142.519379,130.665314 149.258118,128.342651 156.402023,126.012405 
	C166.894272,124.072502 176.914246,121.582970 187.086502,120.357567 
	C198.256912,119.011932 209.658051,117.607452 220.795868,118.430771 
	C237.258163,119.647697 253.576782,122.808495 270.235596,125.372307 
	C277.007019,127.705132 283.499390,129.807220 290.315582,132.075470 
	C297.084930,134.852371 303.530518,137.463120 310.217529,140.323196 
	C315.970428,143.363190 321.481873,146.153839 327.303589,149.103302 
	C333.743103,152.838135 339.872375,156.414139 346.215546,160.246872 
	C351.816650,164.336594 357.169220,168.219437 362.601807,171.986954 
	C367.029602,175.057632 371.553070,177.990356 376.034119,180.984253 
	C376.034119,180.984238 376.002380,181.004013 375.992462,181.320724 
	C375.991882,182.080963 376.001221,182.524475 375.834503,183.270844 
	C369.105896,186.333450 362.678772,189.452042 355.979919,191.793152 
	C320.162415,204.310562 283.126770,210.995148 245.391327,213.790833 
	C239.221420,214.247940 234.242722,214.272827 233.683136,221.813660 
	C231.690765,216.317291 230.381866,210.844757 228.242050,205.719131 
	C219.104248,183.830841 205.644180,165.157455 186.434265,150.920883 
	C185.392639,150.148941 184.172714,149.617599 183.035782,148.974258 
	C182.895508,150.795944 183.468369,151.708893 184.053207,152.614105 
	C187.367020,157.743164 190.683685,162.870346 193.835907,168.294937 
	C192.459564,170.370331 190.993774,172.028198 190.076981,173.948181 
	C185.776550,182.954300 181.536377,191.991837 177.453262,201.098221 
	C174.351364,208.016251 168.076187,213.370911 162.792419,212.939636 
	C159.165268,212.643600 155.579346,211.864639 151.954483,211.512970 
	C145.946426,210.930145 139.921844,210.517578 133.597504,209.894836 
	C126.150162,203.199982 118.031670,202.266418 109.010162,205.200317 
	C107.907181,204.229385 107.049446,203.350662 106.023697,203.055206 
	C97.582642,200.623901 89.022446,198.570740 80.677948,195.851822 
	C74.954910,193.987061 69.518639,191.242172 63.954178,188.890717 
z"/>
<path fill="#7ABEF2" opacity="1.000000" stroke="none" 
	d="
M326.133331,366.065735 
	C316.705719,370.381866 307.278137,374.697998 297.107300,378.988586 
	C293.697815,374.051971 291.031586,369.140839 288.212341,363.947906 
	C284.108307,365.602722 280.035675,367.244873 275.582031,368.910217 
	C272.140350,369.998138 269.079620,371.062897 265.647064,372.148895 
	C261.811707,373.366638 258.348206,374.563141 254.494202,375.805756 
	C250.711349,376.831940 247.319016,377.812042 243.522522,378.833862 
	C233.851746,380.950562 224.585098,383.025482 214.359161,385.315247 
	C217.231720,389.390808 219.564575,392.700684 221.897461,396.010529 
	C193.692505,396.612396 166.173386,392.696442 139.639175,382.963409 
	C118.409149,375.176056 98.981819,364.355988 82.190804,348.866028 
	C71.888512,339.362030 63.174950,328.790649 56.601074,316.348907 
	C57.493690,316.006836 58.007854,315.939545 58.489700,316.035156 
	C88.558197,322.001434 118.762344,326.936035 149.375015,329.282593 
	C154.805435,329.698853 160.505157,331.514404 165.307495,334.112579 
	C173.433487,338.508972 180.924240,344.074249 188.736099,349.063477 
	C189.651093,349.647858 190.906631,349.699005 191.868225,350.311707 
	C189.943695,353.452972 188.155243,356.279907 186.366776,359.106812 
	C188.422592,359.067505 189.841202,358.375549 191.022964,357.397491 
	C202.227341,348.124207 211.581604,337.110229 218.448730,324.418243 
	C223.276657,315.495117 226.255966,305.571808 230.429443,296.079590 
	C231.536179,296.063507 232.274231,296.062897 232.948257,296.436554 
	C230.922836,302.540527 228.961426,308.270264 226.742035,314.223480 
	C224.988556,317.964294 223.493057,321.481659 221.705566,325.169556 
	C219.647430,328.137421 217.777481,330.875458 216.137650,333.744965 
	C213.128220,339.011078 213.680344,340.156006 219.635361,339.950806 
	C234.225586,339.448120 248.817245,338.864227 263.389374,337.995392 
	C276.951691,337.186768 290.590759,336.680115 304.015686,334.771667 
	C327.302216,331.461243 350.447571,327.159637 373.656891,323.302490 
	C378.442719,322.507141 383.249481,321.837738 388.046570,321.110260 
	C381.428192,326.845490 374.809845,332.580688 367.702759,338.484314 
	C365.684998,335.427765 364.155975,332.202759 362.388977,328.475861 
	C357.355499,331.784302 352.666016,334.866669 347.675720,338.087708 
	C345.749756,339.412445 344.124542,340.598511 342.165619,341.810303 
	C340.142670,342.844574 338.453461,343.853119 336.431091,344.933655 
	C334.068878,346.035217 332.039856,347.064789 329.679504,348.196350 
	C326.852325,349.578491 324.450775,351.112030 321.840027,352.082977 
	C317.237000,353.794952 317.472748,356.251160 320.264526,359.406921 
	C322.224884,361.622894 324.177338,363.845886 326.133331,366.065735 
z"/>
<path fill="#7DC4FA" opacity="1.000000" stroke="none" 
	d="
M192.004303,349.997345 
	C190.906631,349.699005 189.651093,349.647858 188.736099,349.063477 
	C180.924240,344.074249 173.433487,338.508972 165.307495,334.112579 
	C160.505157,331.514404 154.805435,329.698853 149.375015,329.282593 
	C118.762344,326.936035 88.558197,322.001434 58.489700,316.035156 
	C58.007854,315.939545 57.493690,316.006836 56.580788,315.995850 
	C53.891586,310.447784 51.616199,304.901947 49.967590,299.365570 
	C55.063412,299.152222 59.532455,298.929413 64.405663,298.731201 
	C75.994339,297.118347 87.565735,296.693146 96.982414,289.080017 
	C96.136742,287.377747 95.548347,286.193390 95.378067,285.014465 
	C107.384636,286.733002 118.973343,288.444305 130.561432,290.159790 
	C137.034698,291.118073 143.506943,292.083313 149.728546,293.280914 
	C145.552460,294.153992 144.267410,296.016876 146.784058,299.509247 
	C148.509491,301.903625 150.101074,304.458557 152.164566,306.531555 
	C156.122925,310.508118 160.008865,314.718964 164.577545,317.893188 
	C175.253067,325.310425 186.314774,332.171814 197.210663,339.631653 
	C195.468933,343.335785 193.736618,346.666565 192.004303,349.997345 
z"/>
<path fill="#1B85F2" opacity="1.000000" stroke="none" 
	d="
M233.984329,221.997070 
	C234.242722,214.272827 239.221420,214.247940 245.391327,213.790833 
	C283.126770,210.995148 320.162415,204.310562 355.979919,191.793152 
	C362.678772,189.452042 369.105896,186.333450 376.110413,183.274887 
	C376.745972,182.960968 376.929504,182.945847 377.113007,182.930740 
	C382.021729,187.398727 386.930450,191.866730 391.646149,196.794922 
	C384.956787,199.791458 378.518677,202.490723 371.953979,204.835678 
	C344.678436,214.578705 316.682373,221.554016 288.031311,225.694855 
	C274.938660,227.587097 261.739990,228.905457 248.543823,229.840652 
	C243.510986,230.197327 239.016418,230.429504 235.723602,234.690765 
	C234.975479,230.255402 234.479904,226.126236 233.984329,221.997070 
z"/>
<path fill="#1D6EB2" opacity="1.000000" stroke="none" 
	d="
M346.001617,159.990143 
	C339.872375,156.414139 333.743103,152.838135 327.303650,148.719131 
	C326.067169,145.727341 325.597443,142.959778 324.144287,140.878967 
	C309.073456,119.298363 289.952362,102.573586 265.501831,92.217422 
	C244.276596,83.227356 222.187454,79.745377 199.353134,82.266350 
	C182.887894,84.084145 167.171509,88.884781 152.414368,96.669518 
	C150.287415,97.791550 147.453049,97.572548 144.946045,97.974136 
	C153.936890,85.931511 165.397339,76.486687 177.146591,67.342430 
	C182.457047,63.209381 188.757828,64.511627 194.376297,65.219452 
	C213.725952,67.657104 232.593353,72.414467 251.019531,78.911041 
	C276.418518,87.866028 300.181396,99.933395 322.049866,115.680779 
	C323.646576,116.830566 325.160431,118.095474 326.745697,119.912628 
	C327.176483,122.166283 327.186584,124.058861 328.043518,125.417122 
	C330.849976,129.865234 334.368591,133.899597 336.865356,138.499100 
	C340.579315,145.340942 345.981903,151.552719 346.001617,159.990143 
z"/>
<path fill="#7DC2F8" opacity="1.000000" stroke="none" 
	d="
M221.997559,324.998993 
	C223.493057,321.481659 224.988556,317.964294 227.096588,314.310242 
	C230.377701,315.115631 233.070404,316.917786 235.710480,316.843750 
	C244.801682,316.588806 253.883743,315.784210 262.952179,314.992889 
	C276.959747,313.770630 291.085388,313.186615 304.924347,310.899902 
	C331.384277,306.527802 357.716949,301.344299 384.020844,296.089203 
	C394.567719,293.982086 404.899292,290.797546 415.214569,288.436340 
	C413.445953,291.534882 411.791626,294.300476 410.137299,297.066071 
	C407.669403,299.972656 405.201508,302.879211 402.026428,305.916260 
	C397.486115,307.110291 393.678619,308.279266 389.815765,309.221039 
	C353.882843,317.981323 317.542114,324.323151 280.627228,326.977234 
	C262.793304,328.259491 244.917007,328.943604 227.069290,330.050262 
	C223.131073,330.294495 221.431656,328.951965 221.997559,324.998993 
z"/>
<path fill="#2E96F7" opacity="1.000000" stroke="none" 
	d="
M405.106781,210.951294 
	C406.673248,212.730881 408.239716,214.510468 409.970581,216.930237 
	C411.178864,219.350235 412.222778,221.130066 412.860901,222.944229 
	C411.195007,223.369278 409.928040,223.739365 408.675812,224.153793 
	C391.660400,229.785355 374.812531,235.999863 357.598907,240.940063 
	C320.989380,251.446777 283.363129,256.136017 245.479935,258.953156 
	C242.399750,259.182220 240.690750,260.219238 239.862930,263.380524 
	C238.562668,268.346008 236.824890,273.202606 235.122574,278.052765 
	C234.738724,279.146393 233.738297,280.023651 232.880737,280.789215 
	C232.473892,280.370239 232.207993,280.162598 231.960938,279.589966 
	C232.324326,277.812958 232.668915,276.400848 233.364777,274.891541 
	C234.450043,273.020813 235.533676,271.308228 235.855499,269.462830 
	C237.040878,262.665710 237.973877,255.824570 239.354019,248.916412 
	C241.766876,247.892776 243.746674,246.492996 245.905899,246.113190 
	C249.804337,245.427460 253.819809,245.440430 257.769165,245.005188 
	C273.075134,243.318405 288.501923,242.309647 303.650208,239.695175 
	C338.440582,233.690598 372.410461,224.492950 405.106781,210.951294 
z"/>
<path fill="#42A7FB" opacity="1.000000" stroke="none" 
	d="
M43.116776,256.960999 
	C43.085785,254.929642 43.054794,252.898285 43.480602,250.452225 
	C56.479286,253.334183 68.892036,257.289215 81.591949,259.780151 
	C103.064087,263.991669 124.680046,267.527161 146.318222,270.800201 
	C152.856888,271.789276 159.642578,273.424255 166.333130,269.850983 
	C174.206024,265.646240 181.391800,260.898163 186.342926,252.951996 
	C194.671951,244.173157 202.636139,235.423416 210.670013,226.738129 
	C212.243118,225.037491 214.086060,223.586472 215.870102,222.405838 
	C216.870758,227.530930 217.805847,232.270493 218.414917,237.074585 
	C216.557312,238.821625 214.978912,240.464096 213.502121,242.193375 
	C206.225403,250.714096 199.032516,259.307190 191.689224,267.769897 
	C188.613434,271.314545 185.238876,274.599976 181.597260,278.005371 
	C179.422562,278.400055 177.539673,278.530884 175.897263,279.228149 
	C166.075790,283.397858 155.867477,283.389282 145.632965,281.839264 
	C126.025810,278.869659 106.469536,275.564667 86.868866,272.550323 
	C85.679581,272.367401 84.286301,273.510895 82.679024,273.889648 
	C74.907463,270.065918 67.444817,266.389740 59.741249,262.476685 
	C54.039139,260.480225 48.577957,258.720612 43.116776,256.960999 
z"/>
<path fill="#1C6AAE" opacity="1.000000" stroke="none" 
	d="
M144.663742,98.160019 
	C147.453049,97.572548 150.287415,97.791550 152.414368,96.669518 
	C167.171509,88.884781 182.887894,84.084145 199.353134,82.266350 
	C222.187454,79.745377 244.276596,83.227356 265.501831,92.217422 
	C289.952362,102.573586 309.073456,119.298363 324.144287,140.878967 
	C325.597443,142.959778 326.067169,145.727341 326.993378,148.560303 
	C321.481873,146.153839 315.970428,143.363190 310.214966,139.950317 
	C308.663727,137.070007 307.744598,134.431519 305.975372,132.626205 
	C300.979187,127.528175 295.931854,122.401009 290.376587,117.943497 
	C262.085968,95.243271 229.610443,87.138008 194.061310,92.373917 
	C173.030457,95.471481 153.898010,103.951286 137.091583,117.304131 
	C135.389023,118.656837 132.964706,119.101089 130.875320,119.966927 
	C135.377365,112.759918 139.879395,105.552902 144.663742,98.160019 
z"/>
<path fill="#258FF5" opacity="1.000000" stroke="none" 
	d="
M404.969849,210.638824 
	C372.410461,224.492950 338.440582,233.690598 303.650208,239.695175 
	C288.501923,242.309647 273.075134,243.318405 257.769165,245.005188 
	C253.819809,245.440430 249.804337,245.427460 245.905899,246.113190 
	C243.746674,246.492996 241.766876,247.892776 239.352966,248.459579 
	C239.016281,245.426102 238.539810,242.632935 239.209442,240.148712 
	C239.721222,238.250031 241.366180,235.882187 243.071335,235.253571 
	C245.934540,234.198029 249.251022,234.395660 252.368958,234.003616 
	C271.725311,231.569763 291.212250,229.873459 310.403534,226.497833 
	C339.895996,221.310272 368.453217,212.528076 396.109711,200.949524 
	C399.017456,204.075134 401.925201,207.200729 404.969849,210.638824 
z"/>
<path fill="#7BC0F5" opacity="1.000000" stroke="none" 
	d="
M221.705566,325.169556 
	C221.431656,328.951965 223.131073,330.294495 227.069290,330.050262 
	C244.917007,328.943604 262.793304,328.259491 280.627228,326.977234 
	C317.542114,324.323151 353.882843,317.981323 389.815765,309.221039 
	C393.678619,308.279266 397.486115,307.110291 401.716583,306.044678 
	C397.631714,310.976593 393.149567,315.910614 388.356995,320.977478 
	C383.249481,321.837738 378.442719,322.507141 373.656891,323.302490 
	C350.447571,327.159637 327.302216,331.461243 304.015686,334.771667 
	C290.590759,336.680115 276.951691,337.186768 263.389374,337.995392 
	C248.817245,338.864227 234.225586,339.448120 219.635361,339.950806 
	C213.680344,340.156006 213.128220,339.011078 216.137650,333.744965 
	C217.777481,330.875458 219.647430,328.137421 221.705566,325.169556 
z"/>
<path fill="#2E96F7" opacity="1.000000" stroke="none" 
	d="
M46.165005,232.003281 
	C46.863914,228.428299 47.562824,224.853317 48.833015,221.359482 
	C55.821079,223.642029 62.135464,226.232468 68.678398,227.954559 
	C78.748505,230.604996 88.975426,232.659607 99.402733,235.160904 
	C103.517868,241.343002 108.425911,246.079437 115.894699,246.450623 
	C123.837021,246.845352 130.543579,243.724838 136.049637,237.988434 
	C142.892014,239.534271 149.450363,241.314774 156.099854,241.773026 
	C159.545731,242.010498 163.989136,240.875626 166.532822,238.681122 
	C174.633392,231.692581 182.217667,224.075027 189.684601,216.392578 
	C195.350525,210.563110 200.246429,204.116699 203.022842,196.247604 
	C203.607849,194.589539 205.562485,193.414688 206.985062,192.289093 
	C207.566101,193.348511 208.048080,194.135986 208.586182,195.321442 
	C209.842758,199.450699 211.043243,203.181961 211.900177,206.989197 
	C209.703400,209.043839 207.850174,211.022522 205.667633,213.072327 
	C203.476944,215.233963 201.388062,217.164993 199.791855,219.441467 
	C190.782455,232.290512 179.478607,242.751511 166.229553,250.979721 
	C162.986481,252.993790 158.453110,254.349792 154.743225,253.937302 
	C141.424942,252.456589 128.144180,250.417679 114.964569,247.969055 
	C99.967567,245.182770 85.058502,241.888046 70.181282,238.506042 
	C62.100693,236.669098 54.165684,234.191757 46.165005,232.003281 
z"/>
<path fill="#1A66AA" opacity="1.000000" stroke="none" 
	d="
M130.580383,120.151138 
	C132.964706,119.101089 135.389023,118.656837 137.091583,117.304131 
	C153.898010,103.951286 173.030457,95.471481 194.061310,92.373917 
	C229.610443,87.138008 262.085968,95.243271 290.376587,117.943497 
	C295.931854,122.401009 300.979187,127.528175 305.975372,132.626205 
	C307.744598,134.431519 308.663727,137.070007 309.973511,139.700989 
	C303.530518,137.463120 297.084930,134.852371 290.315948,131.703201 
	C289.105988,129.509277 288.610962,127.361610 287.261444,126.288139 
	C282.736328,122.688560 278.100494,119.151031 273.159637,116.164452 
	C250.408020,102.411789 225.718216,96.988403 199.334747,100.216751 
	C176.694305,102.987083 156.668625,112.132431 139.155151,126.664314 
	C137.280197,128.220062 136.399277,130.973831 135.057236,133.171844 
	C131.360733,134.801575 127.664238,136.431320 123.601410,138.078705 
	C125.585197,132.176041 127.935318,126.255699 130.580383,120.151138 
z"/>
<path fill="#145A9C" opacity="1.000000" stroke="none" 
	d="
M426.892548,315.048248 
	C424.680145,312.599243 422.467712,310.150269 420.161896,307.058533 
	C422.345062,303.810974 424.568726,301.157684 426.907318,298.609894 
	C436.966125,287.651245 442.679443,274.695435 442.877136,259.900177 
	C443.158936,238.812790 434.240662,222.084183 416.889709,209.956482 
	C419.705933,206.703995 422.522156,203.451492 425.804077,200.347412 
	C427.412903,201.702438 428.449646,203.035980 429.715179,204.096527 
	C448.052490,219.463577 456.373840,239.083893 455.034210,262.943878 
	C453.809448,284.756592 444.211121,301.967560 426.892548,315.048248 
z"/>
<path fill="#125597" opacity="1.000000" stroke="none" 
	d="
M416.593628,210.104431 
	C434.240662,222.084183 443.158936,238.812790 442.877136,259.900177 
	C442.679443,274.695435 436.966125,287.651245 426.907318,298.609894 
	C424.568726,301.157684 422.345062,303.810974 420.010681,306.764404 
	C416.884369,303.848053 413.815857,300.583038 410.442322,297.192047 
	C411.791626,294.300476 413.445953,291.534882 415.468781,288.231750 
	C421.184692,279.096527 426.453400,270.466858 427.256531,259.627228 
	C427.203217,256.533173 427.001343,253.773834 426.811005,250.653793 
	C425.910004,247.859146 424.997467,245.425186 424.089661,242.618073 
	C422.772949,239.482178 421.451416,236.719467 420.056641,233.612381 
	C417.744537,229.815277 415.505646,226.362579 413.266724,222.909882 
	C412.222778,221.130066 411.178864,219.350235 410.119232,217.224640 
	C412.168213,214.670044 414.232880,212.461197 416.593628,210.104431 
z"/>
<path fill="#1760A3" opacity="1.000000" stroke="none" 
	d="
M427.047058,315.346191 
	C444.211121,301.967560 453.809448,284.756592 455.034210,262.943878 
	C456.373840,239.083893 448.052490,219.463577 429.715179,204.096527 
	C428.449646,203.035980 427.412903,201.702438 426.108582,200.192627 
	C428.065613,197.670944 430.183838,195.452454 432.898743,193.251221 
	C437.627380,197.307465 442.051575,201.091141 445.841309,205.429092 
	C463.526733,225.672882 469.391357,249.158920 464.062866,275.380829 
	C460.799561,291.439789 453.191223,305.197388 441.133148,316.461700 
	C438.772675,318.666809 437.004364,321.505829 434.962952,324.052460 
	C432.375824,321.249695 429.788666,318.446930 427.047058,315.346191 
z"/>
<path fill="#39A0FA" opacity="1.000000" stroke="none" 
	d="
M186.002441,253.003662 
	C181.391800,260.898163 174.206024,265.646240 166.333130,269.850983 
	C159.642578,273.424255 152.856888,271.789276 146.318222,270.800201 
	C124.680046,267.527161 103.064087,263.991669 81.591949,259.780151 
	C68.892036,257.289215 56.479286,253.334183 43.551876,250.021469 
	C43.452908,246.963013 43.739468,243.920609 44.506203,240.442825 
	C46.616047,240.264496 48.284515,240.376846 49.869133,240.801849 
	C60.931511,243.768829 71.851395,247.423706 83.054840,249.673386 
	C102.523796,253.582779 122.226761,256.321289 141.710342,260.165405 
	C153.803299,262.551331 165.010864,262.316986 175.034927,254.206772 
	C175.263123,254.022171 175.674393,254.063873 176.249176,254.216644 
	C179.666183,253.956741 182.834320,253.480194 186.002441,253.003662 
z"/>
<path fill="#349AF8" opacity="1.000000" stroke="none" 
	d="
M176.000275,254.000000 
	C175.674393,254.063873 175.263123,254.022171 175.034927,254.206772 
	C165.010864,262.316986 153.803299,262.551331 141.710342,260.165405 
	C122.226761,256.321289 102.523796,253.582779 83.054840,249.673386 
	C71.851395,247.423706 60.931511,243.768829 49.869133,240.801849 
	C48.284515,240.376846 46.616047,240.264496 44.578529,240.010529 
	C44.719540,237.577240 45.268406,235.140854 45.991135,232.353882 
	C54.165684,234.191757 62.100693,236.669098 70.181282,238.506042 
	C85.058502,241.888046 99.967567,245.182770 114.964569,247.969055 
	C128.144180,250.417679 141.424942,252.456589 154.743225,253.937302 
	C158.453110,254.349792 162.986481,252.993790 166.229553,250.979721 
	C179.478607,242.751511 190.782455,232.290512 199.791855,219.441467 
	C201.388062,217.164993 203.476944,215.233963 205.619110,213.424225 
	C204.582581,215.972427 203.489441,218.410995 201.910599,220.478714 
	C193.340012,231.703018 184.649490,242.835739 176.000275,254.000000 
z"/>
<path fill="#2F91DA" opacity="1.000000" stroke="none" 
	d="
M222.028564,396.326599 
	C219.564575,392.700684 217.231720,389.390808 214.359161,385.315247 
	C224.585098,383.025482 233.851746,380.950562 243.553101,379.230408 
	C250.885269,391.790009 257.721313,404.030060 264.709503,416.182648 
	C267.628937,421.259613 270.871674,426.150665 273.967438,431.126221 
	C264.342804,426.271790 254.180450,422.230713 245.249771,416.326599 
	C236.875458,410.790222 229.804291,403.282776 222.028564,396.326599 
z"/>
<path fill="#1863A7" opacity="1.000000" stroke="none" 
	d="
M435.092834,324.341003 
	C437.004364,321.505829 438.772675,318.666809 441.133148,316.461700 
	C453.191223,305.197388 460.799561,291.439789 464.062866,275.380829 
	C469.391357,249.158920 463.526733,225.672882 445.841309,205.429092 
	C442.051575,201.091141 437.627380,197.307465 433.194580,193.108307 
	C434.377930,191.026871 435.862091,189.105637 437.807983,187.339539 
	C438.807922,188.119812 439.256561,188.861847 439.897491,189.352875 
	C454.128540,200.255585 463.326691,214.647690 469.198975,231.381027 
	C470.007996,233.686401 471.105957,235.890381 472.070160,238.141281 
	C471.713867,245.179947 470.979065,252.225876 471.113708,259.255127 
	C471.234650,265.570831 472.310608,271.868256 472.570374,278.682983 
	C471.048737,281.526215 469.724335,283.786926 468.827026,286.206024 
	C462.641418,302.882080 453.514740,317.426178 438.889435,328.051544 
	C437.667175,326.910889 436.444946,325.770233 435.092834,324.341003 
z"/>
<path fill="#1B85F2" opacity="1.000000" stroke="none" 
	d="
M63.640755,189.059570 
	C69.518639,191.242172 74.954910,193.987061 80.677948,195.851822 
	C89.022446,198.570740 97.582642,200.623901 106.023697,203.055206 
	C107.049446,203.350662 107.907181,204.229385 108.762154,205.400269 
	C102.514435,209.211609 98.951485,214.490662 96.553955,220.993256 
	C90.039848,219.471451 83.924858,217.985413 77.828819,216.425369 
	C69.509850,214.296463 61.205315,212.111191 52.894585,209.950089 
	C56.372166,203.042862 59.849747,196.135635 63.640755,189.059570 
z"/>
<path fill="#2882CA" opacity="1.000000" stroke="none" 
	d="
M254.884720,375.759674 
	C258.348206,374.563141 261.811707,373.366638 265.701965,372.501495 
	C266.836853,374.691193 267.333313,376.666473 268.285522,378.389954 
	C279.334595,398.389069 292.304535,416.942261 309.060242,432.679596 
	C310.779785,434.294617 311.698975,436.761780 312.989532,438.833557 
	C307.136353,438.488953 301.283142,438.144379 295.158234,437.106506 
	C288.024261,427.534973 280.573700,419.041199 274.453522,409.677826 
	C267.323120,398.768829 261.356415,387.099213 254.884720,375.759674 
z"/>
<path fill="#238BEF" opacity="1.000000" stroke="none" 
	d="
M395.985962,200.653992 
	C368.453217,212.528076 339.895996,221.310272 310.403534,226.497833 
	C291.212250,229.873459 271.725311,231.569763 252.368958,234.003616 
	C249.251022,234.395660 245.934540,234.198029 243.071335,235.253571 
	C241.366180,235.882187 239.721222,238.250031 239.209442,240.148712 
	C238.539810,242.632935 239.016281,245.426102 239.000778,248.543182 
	C237.973877,255.824570 237.040878,262.665710 235.855499,269.462830 
	C235.533676,271.308228 234.450043,273.020813 233.345856,274.569824 
	C232.958069,273.915619 232.940506,273.485901 232.939941,272.701904 
	C232.961792,271.876678 232.966644,271.405731 233.223557,270.673096 
	C233.628418,268.952454 233.781235,267.493439 233.942337,265.687897 
	C233.955826,264.878387 233.961060,264.415436 234.226105,263.651917 
	C234.982666,253.899887 235.479416,244.448410 235.976166,234.996948 
	C239.016418,230.429504 243.510986,230.197327 248.543823,229.840652 
	C261.739990,228.905457 274.938660,227.587097 288.031311,225.694855 
	C316.682373,221.554016 344.678436,214.578705 371.953979,204.835678 
	C378.518677,202.490723 384.956787,199.791458 391.785156,197.102356 
	C393.365540,198.085892 394.613861,199.222183 395.985962,200.653992 
z"/>
<path fill="#247BC2" opacity="1.000000" stroke="none" 
	d="
M313.383362,438.904633 
	C311.698975,436.761780 310.779785,434.294617 309.060242,432.679596 
	C292.304535,416.942261 279.334595,398.389069 268.285522,378.389954 
	C267.333313,376.666473 266.836853,374.691193 266.073792,372.480286 
	C269.079620,371.062897 272.140350,369.998138 275.640015,369.277588 
	C276.378540,370.395233 276.627563,371.192932 276.985107,371.938568 
	C285.318756,389.317993 296.964264,404.429535 309.507996,418.873047 
	C312.495667,422.313202 316.369446,424.983795 319.835663,428.008362 
	C323.113220,435.084076 319.751251,439.014252 313.383362,438.904633 
z"/>
<path fill="#2B89D2" opacity="1.000000" stroke="none" 
	d="
M254.494202,375.805756 
	C261.356415,387.099213 267.323120,398.768829 274.453522,409.677826 
	C280.573700,419.041199 288.024261,427.534973 294.923950,436.765747 
	C288.083832,435.332611 281.206268,433.547028 274.148071,431.443817 
	C270.871674,426.150665 267.628937,421.259613 264.709503,416.182648 
	C257.721313,404.030060 250.885269,391.790009 243.957245,379.188690 
	C247.319016,377.812042 250.711349,376.831940 254.494202,375.805756 
z"/>
<path fill="#1B4775" opacity="1.000000" stroke="none" 
	d="
M59.982178,262.713531 
	C67.444817,266.389740 74.907463,270.065918 82.842239,274.182861 
	C87.196236,278.085388 91.078094,281.547211 94.959953,285.009003 
	C95.548347,286.193390 96.136742,287.377747 96.982414,289.080017 
	C87.565735,296.693146 75.994339,297.118347 64.404655,298.324097 
	C63.657238,295.241821 63.314991,292.591187 62.972744,289.940582 
	C68.716202,282.980896 68.742027,282.957428 62.423103,276.005188 
	C60.432186,273.814728 58.262100,271.787079 56.339211,269.214905 
	C57.663662,266.734436 58.822922,264.723999 59.982178,262.713531 
z"/>
<path fill="#2174BA" opacity="1.000000" stroke="none" 
	d="
M319.902618,427.629242 
	C316.369446,424.983795 312.495667,422.313202 309.507996,418.873047 
	C296.964264,404.429535 285.318756,389.317993 276.985107,371.938568 
	C276.627563,371.192932 276.378540,370.395233 276.020996,369.254395 
	C280.035675,367.244873 284.108307,365.602722 288.212341,363.947906 
	C291.031586,369.140839 293.697815,374.051971 296.714294,379.043213 
	C299.306122,384.173218 301.420288,389.284363 303.815247,394.260376 
	C309.125214,405.292938 314.576111,416.257721 319.902618,427.629242 
z"/>
<path fill="#258FF5" opacity="1.000000" stroke="none" 
	d="
M52.574444,210.137344 
	C61.205315,212.111191 69.509850,214.296463 77.828819,216.425369 
	C83.924858,217.985413 90.039848,219.471451 96.622208,221.441681 
	C97.777283,226.250916 98.456551,230.608963 99.135818,234.967010 
	C88.975426,232.659607 78.748505,230.604996 68.678398,227.954559 
	C62.135464,226.232468 55.821079,223.642029 49.175606,221.161209 
	C50.049377,217.362732 51.151836,213.843658 52.574444,210.137344 
z"/>
<path fill="#2174BA" opacity="1.000000" stroke="none" 
	d="
M346.215546,160.246872 
	C345.981903,151.552719 340.579315,145.340942 336.865356,138.499100 
	C334.368591,133.899597 330.849976,129.865234 328.043518,125.417122 
	C327.186584,124.058861 327.176483,122.166283 326.913361,120.206940 
	C342.960297,132.041885 356.286926,146.585968 366.931732,163.514832 
	C370.300995,168.873169 372.992920,174.657440 376.014465,180.615524 
	C371.553070,177.990356 367.029602,175.057632 362.601807,171.986954 
	C357.169220,168.219437 351.816650,164.336594 346.215546,160.246872 
z"/>
<path fill="#2174BA" opacity="1.000000" stroke="none" 
	d="
M347.976501,337.949036 
	C352.666016,334.866669 357.355499,331.784302 362.388977,328.475861 
	C364.155975,332.202759 365.684998,335.427765 367.529358,338.787720 
	C370.364014,344.905060 372.866669,350.894501 375.406952,356.868011 
	C378.580139,364.329803 381.784302,371.778412 384.577271,379.557922 
	C375.766510,371.553284 366.989899,363.550903 359.082947,354.765717 
	C354.638824,349.827942 351.631287,343.597229 347.976501,337.949036 
z"/>
<path fill="#2174BA" opacity="1.000000" stroke="none" 
	d="
M467.952332,355.099121 
	C463.715973,351.635132 459.479645,348.171173 455.156250,344.060486 
	C455.694580,342.462524 456.235352,341.440887 456.958496,340.570801 
	C464.637360,331.331635 472.345184,322.116547 480.045044,312.894836 
	C482.355621,320.673370 484.666199,328.451904 486.574615,336.680389 
	C480.099091,343.119934 474.025696,349.109528 467.952332,355.099121 
z"/>
<path fill="#1D6EB2" opacity="1.000000" stroke="none" 
	d="
M480.029602,312.487122 
	C472.345184,322.116547 464.637360,331.331635 456.958496,340.570801 
	C456.235352,341.440887 455.694580,342.462524 455.011719,343.761688 
	C451.700623,340.954193 448.446899,337.798798 445.343323,334.185791 
	C454.376068,325.677094 462.563385,317.071411 468.412354,306.438690 
	C470.595184,302.470581 473.342712,298.813080 475.832764,295.013947 
	C477.226562,300.702423 478.620361,306.390930 480.029602,312.487122 
z"/>
<path fill="#1D6EB2" opacity="1.000000" stroke="none" 
	d="
M480.116516,201.039124 
	C478.731201,207.087296 477.345825,213.135483 475.577026,219.502365 
	C474.066376,218.412476 472.774261,217.104263 471.843658,215.575943 
	C469.339111,211.462830 467.527039,206.800781 464.466095,203.180069 
	C457.952911,195.475906 450.822632,188.293442 443.945282,180.897156 
	C446.744354,177.991852 449.543457,175.086548 452.806641,172.339661 
	C460.007446,179.720963 466.734497,186.952866 473.486328,194.161591 
	C475.662872,196.485474 477.904602,198.748322 480.116516,201.039124 
z"/>
<path fill="#2174BA" opacity="1.000000" stroke="none" 
	d="
M480.426208,200.825165 
	C477.904602,198.748322 475.662872,196.485474 473.486328,194.161591 
	C466.734497,186.952866 460.007446,179.720963 453.110657,172.196945 
	C456.034119,168.932632 459.117706,165.969421 462.847839,163.137848 
	C468.943054,168.927734 474.343719,174.633606 479.872955,180.212036 
	C481.322205,181.674240 483.170380,182.741013 484.835388,183.989380 
	C483.468872,189.529999 482.102386,195.070618 480.426208,200.825165 
z"/>
<path fill="#1A66AA" opacity="1.000000" stroke="none" 
	d="
M443.646362,181.038208 
	C450.822632,188.293442 457.952911,195.475906 464.466095,203.180069 
	C467.527039,206.800781 469.339111,211.462830 471.843658,215.575943 
	C472.774261,217.104263 474.066376,218.412476 475.514099,219.902496 
	C474.803345,225.876984 473.772125,231.770050 472.405548,237.902191 
	C471.105957,235.890381 470.007996,233.686401 469.198975,231.381027 
	C463.326691,214.647690 454.128540,200.255585 439.897491,189.352875 
	C439.256561,188.861847 438.807922,188.119812 438.108521,187.190552 
	C439.747345,184.984039 441.547394,183.081665 443.646362,181.038208 
z"/>
<path fill="#1A66AA" opacity="1.000000" stroke="none" 
	d="
M475.881714,294.613831 
	C473.342712,298.813080 470.595184,302.470581 468.412354,306.438690 
	C462.563385,317.071411 454.376068,325.677094 445.191803,333.885559 
	C442.988617,332.242981 441.087036,330.443054 439.037476,328.347321 
	C453.514740,317.426178 462.641418,302.882080 468.827026,286.206024 
	C469.724335,283.786926 471.048737,281.526215 472.506897,279.099884 
	C473.869080,284.076294 474.899872,289.145020 475.881714,294.613831 
z"/>
<path fill="#2B89D2" opacity="1.000000" stroke="none" 
	d="
M330.010864,348.094360 
	C332.039856,347.064789 334.068878,346.035217 336.708679,345.168884 
	C344.606873,358.405090 354.306610,369.548157 364.887726,380.011627 
	C366.212677,381.321869 366.969208,383.206909 367.989105,384.825623 
	C362.241638,383.215271 356.494171,381.604919 350.357727,379.557098 
	C346.916412,374.849335 343.673218,370.700500 340.858429,366.278992 
	C337.069641,360.327545 333.611115,354.165863 330.010864,348.094360 
z"/>
<path fill="#2882CA" opacity="1.000000" stroke="none" 
	d="
M368.423096,384.898376 
	C366.969208,383.206909 366.212677,381.321869 364.887726,380.011627 
	C354.306610,369.548157 344.606873,358.405090 337.041840,345.096924 
	C338.453461,343.853119 340.142670,342.844574 342.489014,342.007080 
	C344.690552,344.326080 346.088013,346.600098 347.804413,348.600494 
	C355.837341,357.962708 363.976501,367.233734 372.036346,376.572968 
	C374.441986,379.360474 376.713593,382.263672 379.046570,385.113861 
	C375.650055,385.066254 372.253571,385.018677 368.423096,384.898376 
z"/>
<path fill="#2882CA" opacity="1.000000" stroke="none" 
	d="
M468.106445,355.406555 
	C474.025696,349.109528 480.099091,343.119934 486.501099,337.075104 
	C488.555481,343.923767 490.700104,350.757141 491.878235,357.753265 
	C492.869843,363.641968 490.450745,365.722534 484.788208,363.712677 
	C479.054962,361.677643 473.752014,358.430298 468.106445,355.406555 
z"/>
<path fill="#2F91DA" opacity="1.000000" stroke="none" 
	d="
M329.679504,348.196350 
	C333.611115,354.165863 337.069641,360.327545 340.858429,366.278992 
	C343.673218,370.700500 346.916412,374.849335 349.980408,379.473938 
	C342.247772,375.313751 334.503510,370.799255 326.446289,366.175262 
	C324.177338,363.845886 322.224884,361.622894 320.264526,359.406921 
	C317.472748,356.251160 317.237000,353.794952 321.840027,352.082977 
	C324.450775,351.112030 326.852325,349.578491 329.679504,348.196350 
z"/>
<path fill="#247BC2" opacity="1.000000" stroke="none" 
	d="
M485.010803,183.647736 
	C483.170380,182.741013 481.322205,181.674240 479.872955,180.212036 
	C474.343719,174.633606 468.943054,168.927734 463.193665,163.110641 
	C466.345428,160.298080 469.797882,157.644379 473.659180,155.282883 
	C478.990570,160.379974 483.913147,165.184845 488.835754,169.989731 
	C487.619263,174.428513 486.402771,178.867294 485.010803,183.647736 
z"/>
<path fill="#247BC2" opacity="1.000000" stroke="none" 
	d="
M379.457611,385.070984 
	C376.713593,382.263672 374.441986,379.360474 372.036346,376.572968 
	C363.976501,367.233734 355.837341,357.962708 347.804413,348.600494 
	C346.088013,346.600098 344.690552,344.326080 342.822754,341.981354 
	C344.124542,340.598511 345.749756,339.412445 347.675720,338.087708 
	C351.631287,343.597229 354.638824,349.827942 359.082947,354.765717 
	C366.989899,363.550903 375.766510,371.553284 384.509735,379.945068 
	C385.787018,384.259033 383.609772,385.417786 379.457611,385.070984 
z"/>
<path fill="#2882CA" opacity="1.000000" stroke="none" 
	d="
M489.021271,169.633377 
	C483.913147,165.184845 478.990570,160.379974 474.012573,155.226135 
	C477.605286,153.272949 481.134705,151.256226 484.930176,150.164124 
	C490.220551,148.641876 492.667175,150.919815 491.932861,156.559189 
	C491.374908,160.844131 490.140320,165.040970 489.021271,169.633377 
z"/>
<path fill="#1760A3" opacity="1.000000" stroke="none" 
	d="
M59.741249,262.476685 
	C58.822922,264.723999 57.663662,266.734436 56.195320,268.911804 
	C51.650967,265.264862 47.415703,261.451080 43.148605,257.299133 
	C48.577957,258.720612 54.039139,260.480225 59.741249,262.476685 
z"/>
<path fill="#125597" opacity="1.000000" stroke="none" 
	d="
M62.628586,290.009613 
	C63.314991,292.591187 63.657238,295.241821 64.000488,298.299530 
	C59.532455,298.929413 55.063412,299.152222 50.297623,299.174438 
	C54.095390,296.008789 58.189911,293.043701 62.628586,290.009613 
z"/>
<path fill="#2174BA" opacity="1.000000" stroke="none" 
	d="
M377.069458,182.621979 
	C376.929504,182.945847 376.745972,182.960968 376.286499,182.972046 
	C376.001221,182.524475 375.991882,182.080963 376.000641,181.304230 
	C376.354462,181.418411 376.690155,181.865799 377.069458,182.621979 
z"/>
<path fill="#1863A7" opacity="1.000000" stroke="none" 
	d="
M135.418930,133.079895 
	C136.399277,130.973831 137.280197,128.220062 139.155151,126.664314 
	C156.668625,112.132431 176.694305,102.987083 199.334747,100.216751 
	C225.718216,96.988403 250.408020,102.411789 273.159637,116.164452 
	C278.100494,119.151031 282.736328,122.688560 287.261444,126.288139 
	C288.610962,127.361610 289.105988,129.509277 289.992157,131.537048 
	C283.499390,129.807220 277.007019,127.705132 270.200378,125.012711 
	C267.754547,122.695816 265.830109,120.583984 263.456390,119.307770 
	C251.634094,112.951584 239.024979,109.397156 225.626541,107.758858 
	C203.021957,104.994873 182.084305,109.766983 162.173828,120.064247 
	C159.739288,121.323334 158.037979,124.000183 155.996872,126.020004 
	C149.258118,128.342651 142.519379,130.665314 135.418930,133.079895 
z"/>
<path fill="#1B85F2" opacity="1.000000" stroke="none" 
	d="
M133.904236,210.033279 
	C139.921844,210.517578 145.946426,210.930145 151.954483,211.512970 
	C155.579346,211.864639 159.165268,212.643600 162.792419,212.939636 
	C168.076187,213.370911 174.351364,208.016251 177.453262,201.098221 
	C181.536377,191.991837 185.776550,182.954300 190.076981,173.948181 
	C190.993774,172.028198 192.459564,170.370331 194.070984,168.480591 
	C195.299347,169.224960 196.129166,170.080429 197.022522,171.293732 
	C198.405396,174.398483 199.724716,177.145386 200.836807,180.167206 
	C199.305832,182.524460 197.810287,184.518829 196.690460,186.705597 
	C193.291946,193.342102 190.865509,200.660538 186.516632,206.578949 
	C181.254776,213.739822 174.653793,219.996796 168.125977,226.103699 
	C165.851959,228.231094 162.075012,229.772522 158.976913,229.785538 
	C152.571060,229.812439 146.160172,228.633804 139.715332,227.530701 
	C140.196304,220.592194 137.768906,215.069702 133.904236,210.033279 
z"/>
<path fill="#FAFCFD" opacity="1.000000" stroke="none" 
	d="
M133.597504,209.894836 
	C137.768906,215.069702 140.196304,220.592194 139.513672,227.821777 
	C138.166473,231.580399 136.984940,234.627655 135.803406,237.674896 
	C130.543579,243.724838 123.837021,246.845352 115.894699,246.450623 
	C108.425911,246.079437 103.517868,241.343002 99.402733,235.160904 
	C98.456551,230.608963 97.777283,226.250916 97.029778,221.444458 
	C98.951485,214.490662 102.514435,209.211609 108.929535,205.762787 
	C118.031670,202.266418 126.150162,203.199982 133.597504,209.894836 
M117.661758,235.642334 
	C124.109711,234.873352 127.545815,232.429520 128.671143,227.454208 
	C129.728271,222.780304 128.157715,218.875839 124.231735,216.208572 
	C120.475990,213.656952 116.400116,213.636124 112.570404,216.111557 
	C108.717781,218.601807 107.195847,222.340073 107.960793,226.829987 
	C108.811760,231.824814 112.048187,234.554642 117.661758,235.642334 
z"/>
<path fill="#1760A3" opacity="1.000000" stroke="none" 
	d="
M156.402023,126.012405 
	C158.037979,124.000183 159.739288,121.323334 162.173828,120.064247 
	C182.084305,109.766983 203.021957,104.994873 225.626541,107.758858 
	C239.024979,109.397156 251.634094,112.951584 263.456390,119.307770 
	C265.830109,120.583984 267.754547,122.695816 269.921356,124.781975 
	C253.576782,122.808495 237.258163,119.647697 220.795868,118.430771 
	C209.658051,117.607452 198.256912,119.011932 187.086502,120.357567 
	C176.914246,121.582970 166.894272,124.072502 156.402023,126.012405 
z"/>
<path fill="#0F78E0" opacity="1.000000" stroke="none" 
	d="
M196.958984,170.935898 
	C196.129166,170.080429 195.299347,169.224960 194.234467,168.183838 
	C190.683685,162.870346 187.367020,157.743164 184.053207,152.614105 
	C183.468369,151.708893 182.895508,150.795944 183.035782,148.974258 
	C184.172714,149.617599 185.392639,150.148941 186.434265,150.920883 
	C205.644180,165.157455 219.104248,183.830841 228.242050,205.719131 
	C230.381866,210.844757 231.690765,216.317291 233.683136,221.813660 
	C234.479904,226.126236 234.975479,230.255402 235.723602,234.690765 
	C235.479416,244.448410 234.982666,253.899887 233.969177,263.334534 
	C233.298035,257.179871 233.343491,251.026230 232.859924,244.914459 
	C232.725693,243.217834 231.022324,241.645370 230.014267,239.601761 
	C229.484665,236.079514 229.059586,232.955978 228.461472,229.865936 
	C224.991943,211.941116 217.835480,195.589935 206.898270,181.001007 
	C204.095963,177.263046 200.298996,174.270752 196.958984,170.935898 
z"/>
<path fill="#7EC5FC" opacity="1.000000" stroke="none" 
	d="
M427.107941,259.961945 
	C426.453400,270.466858 421.184692,279.096527 415.583099,287.898834 
	C404.899292,290.797546 394.567719,293.982086 384.020844,296.089203 
	C357.716949,301.344299 331.384277,306.527802 304.924347,310.899902 
	C291.085388,313.186615 276.959747,313.770630 262.952179,314.992889 
	C253.883743,315.784210 244.801682,316.588806 235.710480,316.843750 
	C233.070404,316.917786 230.377701,315.115631 227.354568,314.086792 
	C228.961426,308.270264 230.922836,302.540527 233.355881,296.343201 
	C235.457275,295.590820 237.076492,295.167175 238.718399,295.042450 
	C256.583954,293.685120 274.564667,293.210175 292.293396,290.842621 
	C315.135345,287.792206 338.004669,284.226410 360.439484,279.050293 
	C382.932983,273.860748 404.906525,266.417480 427.107941,259.961945 
z"/>
<path fill="#4CB0FE" opacity="1.000000" stroke="none" 
	d="
M427.256531,259.627228 
	C404.906525,266.417480 382.932983,273.860748 360.439484,279.050293 
	C338.004669,284.226410 315.135345,287.792206 292.293396,290.842621 
	C274.564667,293.210175 256.583954,293.685120 238.718399,295.042450 
	C237.076492,295.167175 235.457275,295.590820 233.419891,295.968994 
	C232.274231,296.062897 231.536179,296.063507 230.415009,295.810730 
	C230.029221,295.378571 230.026566,295.199768 230.382263,294.956238 
	C231.828842,293.261475 232.917068,291.631439 234.209503,289.876099 
	C234.668228,289.548065 234.866821,289.300415 235.394836,288.945801 
	C238.351105,288.257782 240.893478,287.279236 243.497986,287.068481 
	C253.571365,286.253387 263.711182,286.088287 273.740265,284.933899 
	C292.323517,282.794983 310.954620,280.752502 329.369690,277.544403 
	C359.189148,272.349548 388.434784,264.704620 416.881805,254.203888 
	C420.136627,253.002411 423.491180,252.071091 426.799438,251.014496 
	C427.001343,253.773834 427.203217,256.533173 427.256531,259.627228 
z"/>
<path fill="#55A2DD" opacity="1.000000" stroke="none" 
	d="
M230.023895,295.020935 
	C230.026566,295.199768 230.029221,295.378571 230.046326,295.826233 
	C226.255966,305.571808 223.276657,315.495117 218.448730,324.418243 
	C211.581604,337.110229 202.227341,348.124207 191.022964,357.397491 
	C189.841202,358.375549 188.422592,359.067505 186.366776,359.106812 
	C188.155243,356.279907 189.943695,353.452972 191.868225,350.311707 
	C193.736618,346.666565 195.468933,343.335785 197.482101,339.580933 
	C198.464432,338.911377 199.165894,338.665924 200.194824,338.249512 
	C202.030609,336.824280 204.060089,335.864838 204.963165,334.268219 
	C211.102081,323.415100 216.984940,312.417511 222.997101,301.492188 
	C224.227753,299.255829 225.655624,297.127991 227.365173,294.961060 
	C228.480988,294.939331 229.224213,294.906738 229.978973,294.911804 
	C229.990509,294.949493 230.023895,295.020935 230.023895,295.020935 
z"/>
<path fill="#4CB0FE" opacity="1.000000" stroke="none" 
	d="
M95.378067,285.014465 
	C91.078094,281.547211 87.196236,278.085388 83.151161,274.330383 
	C84.286301,273.510895 85.679581,272.367401 86.868866,272.550323 
	C106.469536,275.564667 126.025810,278.869659 145.632965,281.839264 
	C155.867477,283.389282 166.075790,283.397858 175.897263,279.228149 
	C177.539673,278.530884 179.422562,278.400055 181.843018,278.249420 
	C184.738647,279.533722 187.226669,280.247864 189.183289,281.685394 
	C193.518768,284.870605 197.765488,283.924774 201.629456,281.435699 
	C206.323334,278.411987 210.570038,274.700867 215.090286,271.396729 
	C216.455872,270.398499 218.087677,269.764496 219.583359,269.419617 
	C218.702988,276.921600 217.836792,283.967621 216.828568,291.340027 
	C216.157852,293.425049 215.629181,295.183655 214.637146,296.935394 
	C201.120071,296.309998 188.066360,295.691498 174.559692,295.045837 
	C166.064377,294.360901 158.022018,293.703156 149.979645,293.045410 
	C143.506943,292.083313 137.034698,291.118073 130.561432,290.159790 
	C118.973343,288.444305 107.384636,286.733002 95.378067,285.014465 
z"/>
<path fill="#94CEFB" opacity="1.000000" stroke="none" 
	d="
M149.728546,293.280884 
	C158.022018,293.703156 166.064377,294.360901 174.558456,295.426514 
	C175.644943,297.683533 175.796310,299.966400 176.998535,301.306458 
	C182.091202,306.983002 187.238235,312.664032 192.879913,317.775574 
	C196.488556,321.045135 200.996552,323.322083 205.059052,326.405090 
	C203.300293,330.650940 201.583832,334.535706 199.867371,338.420471 
	C199.165894,338.665924 198.464432,338.911377 197.491516,339.207550 
	C186.314774,332.171814 175.253067,325.310425 164.577545,317.893188 
	C160.008865,314.718964 156.122925,310.508118 152.164566,306.531555 
	C150.101074,304.458557 148.509491,301.903625 146.784058,299.509247 
	C144.267410,296.016876 145.552460,294.153992 149.728546,293.280884 
z"/>
<path fill="#379EF9" opacity="1.000000" stroke="none" 
	d="
M234.005295,290.001373 
	C232.917068,291.631439 231.828842,293.261475 230.382263,294.956238 
	C230.023895,295.020935 229.990509,294.949493 229.985138,294.521851 
	C230.612595,290.705475 231.245422,287.316772 231.900299,283.612427 
	C231.916809,282.874908 231.911285,282.453003 232.129333,281.903442 
	C232.575836,281.517334 232.798767,281.258911 233.021698,281.000519 
	C233.738297,280.023651 234.738724,279.146393 235.122574,278.052765 
	C236.824890,273.202606 238.562668,268.346008 239.862930,263.380524 
	C240.690750,260.219238 242.399750,259.182220 245.479935,258.953156 
	C283.363129,256.136017 320.989380,251.446777 357.598907,240.940063 
	C374.812531,235.999863 391.660400,229.785355 408.675812,224.153793 
	C409.928040,223.739365 411.195007,223.369278 412.860901,222.944214 
	C415.505646,226.362579 417.744537,229.815277 419.676788,233.674240 
	C391.220184,244.942139 362.482056,253.935181 332.803741,259.427948 
	C313.909454,262.924835 294.814301,265.388519 275.759613,267.945953 
	C265.256836,269.355591 254.632462,269.845886 244.110519,271.138245 
	C242.261627,271.365326 240.019272,273.154388 239.062210,274.846375 
	C237.283997,277.990082 236.318939,281.593781 235.010529,285.379211 
	C235.000534,286.499176 234.995300,287.245850 234.718262,288.038635 
	C234.299408,288.723602 234.152359,289.362488 234.005295,290.001373 
z"/>
<path fill="#0F78E0" opacity="1.000000" stroke="none" 
	d="
M232.922943,273.056213 
	C232.940506,273.485901 232.958069,273.915619 232.994568,274.667053 
	C232.668915,276.400848 232.324326,277.812958 231.739380,279.580811 
	C231.499008,279.936615 231.054596,279.916809 231.040558,279.507263 
	C231.658661,277.083862 232.290802,275.070038 232.922943,273.056213 
z"/>
<path fill="#238BEF" opacity="1.000000" stroke="none" 
	d="
M231.054596,279.916809 
	C231.054596,279.916809 231.499008,279.936615 231.720551,279.945770 
	C232.207993,280.162598 232.473892,280.370239 232.880737,280.789215 
	C232.798767,281.258911 232.575836,281.517334 231.892349,281.904602 
	C231.431793,282.033417 230.955566,282.030945 230.965668,281.678864 
	C231.002045,280.856781 231.028320,280.386810 231.054596,279.916809 
z"/>
<path fill="#4FA7F9" opacity="1.000000" stroke="none" 
	d="
M219.597534,268.963654 
	C218.087677,269.764496 216.455872,270.398499 215.090286,271.396729 
	C210.570038,274.700867 206.323334,278.411987 201.629456,281.435699 
	C197.765488,283.924774 193.518768,284.870605 189.183289,281.685394 
	C187.226669,280.247864 184.738647,279.533722 182.245941,278.247314 
	C185.238876,274.599976 188.613434,271.314545 191.689224,267.769897 
	C199.032516,259.307190 206.225403,250.714096 213.502121,242.193375 
	C214.978912,240.464096 216.557312,238.821625 218.494476,237.498749 
	C219.132553,248.226807 219.365051,258.595215 219.597534,268.963654 
z"/>
<path fill="#379EF9" opacity="1.000000" stroke="none" 
	d="
M176.249176,254.216644 
	C184.649490,242.835739 193.340012,231.703018 201.910599,220.478714 
	C203.489441,218.410995 204.582581,215.972427 205.948425,213.353119 
	C207.850174,211.022522 209.703400,209.043839 212.119690,207.216690 
	C213.118301,208.587311 213.553864,209.806412 213.985428,211.425964 
	C214.589142,215.224380 215.196838,218.622345 215.804535,222.020309 
	C214.086060,223.586472 212.243118,225.037491 210.670013,226.738129 
	C202.636139,235.423416 194.671951,244.173157 186.342926,252.951996 
	C182.834320,253.480194 179.666183,253.956741 176.249176,254.216644 
z"/>
<path fill="#1B4775" opacity="1.000000" stroke="none" 
	d="
M215.870102,222.405838 
	C215.196838,218.622345 214.589142,215.224380 214.335632,211.489212 
	C215.537277,212.507767 216.672806,213.762497 217.189148,215.234406 
	C225.458633,238.807877 226.391418,262.685944 219.800049,286.794891 
	C219.376724,288.343262 217.937332,289.613831 216.970612,291.013641 
	C217.836792,283.967621 218.702988,276.921600 219.583374,269.419617 
	C219.365051,258.595215 219.132553,248.226807 218.820496,237.434219 
	C217.805847,232.270493 216.870758,227.530930 215.870102,222.405838 
z"/>
<path fill="#258FF5" opacity="1.000000" stroke="none" 
	d="
M136.049637,237.988434 
	C136.984940,234.627655 138.166473,231.580399 139.549683,228.242081 
	C146.160172,228.633804 152.571060,229.812439 158.976913,229.785538 
	C162.075012,229.772522 165.851959,228.231094 168.125977,226.103699 
	C174.653793,219.996796 181.254776,213.739822 186.516632,206.578949 
	C190.865509,200.660538 193.291946,193.342102 196.690460,186.705597 
	C197.810287,184.518829 199.305832,182.524460 201.067871,180.317215 
	C201.943253,180.763885 202.380341,181.335464 202.869736,182.274368 
	C204.243362,185.766861 205.564682,188.892014 206.886017,192.017166 
	C205.562485,193.414688 203.607849,194.589539 203.022842,196.247604 
	C200.246429,204.116699 195.350525,210.563110 189.684601,216.392578 
	C182.217667,224.075027 174.633392,231.692581 166.532822,238.681122 
	C163.989136,240.875626 159.545731,242.010498 156.099854,241.773026 
	C149.450363,241.314774 142.892014,239.534271 136.049637,237.988434 
z"/>
<path fill="#125597" opacity="1.000000" stroke="none" 
	d="
M216.828552,291.340027 
	C217.937332,289.613831 219.376724,288.343262 219.800049,286.794891 
	C226.391418,262.685944 225.458633,238.807877 217.189148,215.234406 
	C216.672806,213.762497 215.537277,212.507767 214.339630,211.088745 
	C213.553864,209.806412 213.118301,208.587311 212.463226,207.140732 
	C211.043243,203.181961 209.842758,199.450699 208.976257,195.392090 
	C210.408646,196.442047 211.773926,197.681961 212.564682,199.217697 
	C221.616058,216.796326 226.429642,235.396042 226.060303,255.273422 
	C225.993973,258.842560 226.659225,262.425293 226.989319,266.334106 
	C226.987488,267.109650 226.983017,267.552856 226.626892,268.100525 
	C225.864288,269.820923 225.453354,271.436829 225.043091,273.375244 
	C225.041214,274.127777 225.038696,274.557770 224.786057,275.245972 
	C224.369141,276.684784 224.202316,277.865356 224.035416,279.370361 
	C224.031815,280.127319 224.028290,280.559875 223.797119,281.185852 
	C223.394302,281.938293 223.219131,282.497314 223.042175,283.379120 
	C223.033707,284.132233 223.027023,284.562592 222.767136,285.248901 
	C221.706055,288.389465 220.898163,291.274017 220.071228,294.531067 
	C217.318634,299.993256 214.585083,305.082977 211.877563,309.769165 
	C212.969238,305.224487 214.034866,301.083405 215.100494,296.942291 
	C215.629181,295.183655 216.157852,293.425049 216.828552,291.340027 
z"/>
<path fill="#145A9C" opacity="1.000000" stroke="none" 
	d="
M226.986679,266.001770 
	C226.659225,262.425293 225.993973,258.842560 226.060303,255.273422 
	C226.429642,235.396042 221.616058,216.796326 212.564682,199.217697 
	C211.773926,197.681961 210.408646,196.442047 208.920151,194.994110 
	C208.048080,194.135986 207.566101,193.348511 206.985062,192.289093 
	C205.564682,188.892014 204.243362,185.766861 203.232544,182.346100 
	C206.717148,186.407913 210.295044,190.530518 212.991043,195.166016 
	C221.724686,210.182739 226.388214,226.601471 227.761246,243.813049 
	C228.345901,251.142059 227.294540,258.601562 226.986679,266.001770 
z"/>
<path fill="#3FA5FB" opacity="1.000000" stroke="none" 
	d="
M235.015320,285.005951 
	C236.318939,281.593781 237.283997,277.990082 239.062210,274.846375 
	C240.019272,273.154388 242.261627,271.365326 244.110519,271.138245 
	C254.632462,269.845886 265.256836,269.355591 275.759613,267.945953 
	C294.814301,265.388519 313.909454,262.924835 332.803741,259.427948 
	C362.482056,253.935181 391.220184,244.942139 419.750000,234.018631 
	C421.451416,236.719467 422.772949,239.482178 423.695923,242.632965 
	C419.530304,244.298859 415.752502,245.546143 411.997742,246.859344 
	C384.369476,256.522095 356.339661,264.898041 327.423615,269.518402 
	C303.252838,273.380493 278.883148,276.038269 254.562180,278.894348 
	C247.559525,279.716705 239.787201,277.318909 235.015320,285.005951 
z"/>
<path fill="#45AAFD" opacity="1.000000" stroke="none" 
	d="
M235.010529,285.379211 
	C239.787201,277.318909 247.559525,279.716705 254.562180,278.894348 
	C278.883148,276.038269 303.252838,273.380493 327.423615,269.518402 
	C356.339661,264.898041 384.369476,256.522095 411.997742,246.859344 
	C415.752502,245.546143 419.530304,244.298859 423.691162,243.006149 
	C424.997467,245.425186 425.910004,247.859146 426.811035,250.653809 
	C423.491180,252.071091 420.136627,253.002411 416.881805,254.203888 
	C388.434784,264.704620 359.189148,272.349548 329.369690,277.544403 
	C310.954620,280.752502 292.323517,282.794983 273.740265,284.933899 
	C263.711182,286.088287 253.571365,286.253387 243.497986,287.068481 
	C240.893478,287.279236 238.351105,288.257782 235.390045,288.691895 
	C234.996628,288.330933 234.993362,288.161743 234.990082,287.992554 
	C234.995300,287.245850 235.000534,286.499176 235.010529,285.379211 
z"/>
<path fill="#247BC2" opacity="1.000000" stroke="none" 
	d="
M211.851532,310.172699 
	C214.585083,305.082977 217.318634,299.993256 220.392075,294.412811 
	C221.505997,292.297150 222.280014,290.672211 223.398941,288.944214 
	C224.497925,287.237854 225.433914,285.693726 225.977463,284.022003 
	C230.645111,269.666351 230.145004,254.820618 230.038849,240.015945 
	C231.022324,241.645370 232.725693,243.217834 232.859924,244.914459 
	C233.343491,251.026230 233.298035,257.179871 233.709351,263.635071 
	C233.961060,264.415436 233.955826,264.878387 233.613815,265.772461 
	C233.175186,267.780640 233.073349,269.357697 232.971512,270.934784 
	C232.966644,271.405731 232.961792,271.876678 232.939941,272.701904 
	C232.290802,275.070038 231.658661,277.083862 231.040558,279.507263 
	C231.028320,280.386810 231.002045,280.856781 230.670135,281.735596 
	C229.942551,282.751709 229.520615,283.359009 229.077652,284.381042 
	C228.368607,288.180542 227.680603,291.565369 226.992584,294.950165 
	C225.655624,297.127991 224.227753,299.255829 222.997101,301.492188 
	C216.984940,312.417511 211.102081,323.415100 204.963165,334.268219 
	C204.060089,335.864838 202.030609,336.824280 200.194824,338.249512 
	C201.583832,334.535706 203.300293,330.650940 205.304016,326.146118 
	C207.678040,320.408264 209.764801,315.290497 211.851532,310.172699 
z"/>
<path fill="#0F78E0" opacity="1.000000" stroke="none" 
	d="
M233.223557,270.673096 
	C233.073349,269.357697 233.175186,267.780640 233.605545,266.119019 
	C233.781235,267.493439 233.628418,268.952454 233.223557,270.673096 
z"/>
<path fill="#1C6AAE" opacity="1.000000" stroke="none" 
	d="
M230.014267,239.601761 
	C230.145004,254.820618 230.645111,269.666351 225.977463,284.022003 
	C225.433914,285.693726 224.497925,287.237854 223.416763,288.624359 
	C223.066559,287.269348 223.043442,286.131134 223.020325,284.992920 
	C223.027023,284.562592 223.033707,284.132233 223.308655,283.319366 
	C223.726181,282.288696 223.875473,281.640564 224.024765,280.992432 
	C224.028290,280.559875 224.031815,280.127319 224.354187,279.276794 
	C224.794067,277.568512 224.915115,276.278137 225.036163,274.987793 
	C225.038696,274.557770 225.041214,274.127777 225.389221,273.257324 
	C226.149307,271.209930 226.563934,269.602997 226.978577,267.996033 
	C226.983017,267.552856 226.987488,267.109650 226.989304,266.334106 
	C227.294540,258.601562 228.345901,251.142059 227.761246,243.813049 
	C226.388214,226.601471 221.724686,210.182739 212.991043,195.166016 
	C210.295044,190.530518 206.717148,186.407913 203.180237,181.978760 
	C202.380341,181.335464 201.943253,180.763885 201.275085,180.042297 
	C199.724716,177.145386 198.405396,174.398483 197.022522,171.293732 
	C200.298996,174.270752 204.095963,177.263046 206.898270,181.001007 
	C217.835480,195.589935 224.991943,211.941116 228.461472,229.865936 
	C229.059586,232.955978 229.484665,236.079514 230.014267,239.601761 
z"/>
<path fill="#262626" opacity="1.000000" stroke="none" 
	d="
M117.283531,235.583160 
	C112.048187,234.554642 108.811760,231.824814 107.960793,226.829987 
	C107.195847,222.340073 108.717781,218.601807 112.570404,216.111557 
	C116.400116,213.636124 120.475990,213.656952 124.231735,216.208572 
	C128.157715,218.875839 129.728271,222.780304 128.671143,227.454208 
	C127.545815,232.429520 124.109711,234.873352 117.283531,235.583160 
z"/>
<path fill="#3FA5FB" opacity="1.000000" stroke="none" 
	d="
M234.718262,288.038635 
	C234.993362,288.161743 234.996628,288.330933 235.004684,288.754028 
	C234.866821,289.300415 234.668228,289.548065 234.209503,289.876099 
	C234.152359,289.362488 234.299408,288.723602 234.718262,288.038635 
z"/>
<path fill="#238BEF" opacity="1.000000" stroke="none" 
	d="
M227.365173,294.961060 
	C227.680603,291.565369 228.368607,288.180542 229.424469,284.384827 
	C230.487640,283.958618 231.182938,283.943329 231.878250,283.928040 
	C231.245422,287.316772 230.612595,290.705475 229.973602,294.484161 
	C229.224213,294.906738 228.480988,294.939331 227.365173,294.961060 
z"/>
<path fill="#9ED3FD" opacity="1.000000" stroke="none" 
	d="
M211.877579,309.769165 
	C209.764801,315.290497 207.678040,320.408264 205.346329,325.785034 
	C200.996552,323.322083 196.488556,321.045135 192.879913,317.775574 
	C187.238235,312.664032 182.091202,306.983002 176.998535,301.306458 
	C175.796310,299.966400 175.644943,297.683533 175.011398,295.453674 
	C188.066360,295.691498 201.120071,296.309998 214.637146,296.935394 
	C214.034866,301.083405 212.969238,305.224487 211.877579,309.769165 
z"/>
<path fill="#0F78E0" opacity="1.000000" stroke="none" 
	d="
M231.900299,283.612427 
	C231.182938,283.943329 230.487640,283.958618 229.445511,283.970093 
	C229.520615,283.359009 229.942551,282.751709 230.660034,282.087677 
	C230.955566,282.030945 231.431793,282.033417 231.668793,282.032257 
	C231.911285,282.453003 231.916809,282.874908 231.900299,283.612427 
z"/>
<path fill="#145A9C" opacity="1.000000" stroke="none" 
	d="
M222.767120,285.248901 
	C223.043442,286.131134 223.066559,287.269348 223.071854,288.727417 
	C222.280014,290.672211 221.505997,292.297150 220.411118,294.040344 
	C220.898163,291.274017 221.706055,288.389465 222.767120,285.248901 
z"/>
<path fill="#145A9C" opacity="1.000000" stroke="none" 
	d="
M226.626892,268.100525 
	C226.563934,269.602997 226.149307,271.209930 225.388550,272.934814 
	C225.453354,271.436829 225.864288,269.820923 226.626892,268.100525 
z"/>
<path fill="#145A9C" opacity="1.000000" stroke="none" 
	d="
M224.786057,275.245972 
	C224.915115,276.278137 224.794067,277.568512 224.354248,278.952393 
	C224.202316,277.865356 224.369141,276.684784 224.786057,275.245972 
z"/>
<path fill="#145A9C" opacity="1.000000" stroke="none" 
	d="
M223.797119,281.185852 
	C223.875473,281.640564 223.726181,282.288696 223.310425,282.996582 
	C223.219131,282.497314 223.394302,281.938293 223.797119,281.185852 
z"/>
</svg>